# xmcd
#
# Track frame offsets:
# 150
# 7356
# 49850
# 86140
# 102334
# 136437
# 165791
# 182870
# 210073
# 236098
#
# Disc length: 3318 seconds
#
#
# Revision: 0
# Processed by: cddbd v1.5.1PL2 Copyright (c) Steve Scherf et al.
# Submitted via: FreeRIP 2.945 
#
DISCID=810cf40a
DTITLE=Ö1 Extra 27.4.2002 - J.C. Man in Black - A Tribute to J.C.
DYEAR=1900
DGENRE=bio
TTITLE0=intro
TTITLE1=Im leavin now
TTITLE2=folsom prison blues
TTITLE3=I walk the line
TTITLE4=ballad of a teenage queen
TTITLE5=the ballad of ira hayes
TTITLE6=ring of fire
TTITLE7=a boy named sue
TTITLE8=girl from the north country
TTITLE9=I wont back down
EXTD=
EXTT0=
EXTT1=
EXTT2=
EXTT3=
EXTT4=
EXTT5=
EXTT6=
EXTT7=
EXTT8=
EXTT9=
PLAYORDER=
